<svg width="201" height="40" fill="none" xmlns="http://www.w3.org/2000/svg"><g clip-path="url(#clip0)" fill="#D7B399"><path d="M9.3 14.7L4.1 20l5.2 5.3 5.3-5.3-5.3-5.3zM20 4l-5.3 5.4 5.3 5.2 5.3-5.2L20 4zM20 25.4l-5.3 5.3 5.3 5.2 5.3-5.2-5.3-5.3zM30.6 14.7L25.4 20l5.2 5.3L36 20l-5.3-5.3zM28.6 12.7L23.3 18l2 2 5.3-5.3-2-2zM18 23.4l-5.3 5.2 2 2 5.3-5.2-2-2z"/><path d="M25.3 9.4L20 14.6l2 2 5.3-5.2-2-2zM14.6 20l-5.2 5.3 2 2 5.3-5.3-2-2zM11.4 12.7l-2 2 5.2 5.3 2-2-5.2-5.3zM14.7 9.3l-2 2 5.3 5.4 2-2-5.3-5.4zM25.4 20l-2 2 5.2 5.3 2-2-5.2-5.3zM22 23.3l-2 2 5.3 5.3 2-2-5.3-5.3zM27.3 32.7l-2-2-5.3 5.2-5.3-5.2-2 2L20 40l7.3-7.3zM9.3 14.7l-2-2L0 20l7.3 7.3 2-2L4.1 20l5.2-5.3zM32.7 12.7l-2 2 5.2 5.3-5.2 5.3 2 2L40 20l-7.3-7.3zM25.3 9.3l2-2L20 0l-7.3 7.3 2 2L20 4.1l5.3 5.2z"/></g><path d="M65.5 15.4H60v-3.2h14.6v3.2h-5.3V29h-4V15.4zm28-3.2V29h-4v-6.9H82V29H78V12.2h4v6.6h7.5v-6.6h4zm18.1 13.7V29h-13V12.2h12.7v3.1h-8.8V19h7.8v3h-7.8v3.9h9.1zM124 12.2h3.9v13.6h8.4V29H124V12.2zm23.5 17c-1.7 0-3.3-.3-4.7-1a8.5 8.5 0 01-3.3-3.1 8.6 8.6 0 01-1.1-4.5 8.5 8.5 0 014.4-7.6c1.4-.7 3-1 4.7-1 1.8 0 3.4.3 4.8 1a8.5 8.5 0 014.4 7.6 8.5 8.5 0 01-4.4 7.6c-1.4.7-3 1-4.8 1zm0-3.2c1 0 2-.2 2.7-.7a5 5 0 002-2c.4-.7.6-1.7.6-2.7 0-1-.2-2-.7-2.8-.4-.8-1-1.4-1.9-1.9-.8-.4-1.7-.7-2.7-.7a5.3 5.3 0 00-4.5 2.6c-.5.8-.7 1.8-.7 2.8 0 1 .2 2 .7 2.8a5 5 0 004.5 2.6zm21.5 3.3c-1.7 0-3.3-.4-4.7-1.1a8.5 8.5 0 01-3.3-3.1 8.6 8.6 0 01-1.2-4.5 8.5 8.5 0 014.5-7.6c1.4-.7 3-1 4.7-1 1.7 0 3.3.3 4.7 1a8.5 8.5 0 014.5 7.6 8.5 8.5 0 01-4.5 7.6c-1.4.7-3 1-4.7 1zm0-3.3c1 0 1.9-.2 2.7-.7a5 5 0 001.9-2c.4-.7.7-1.7.7-2.7 0-1-.3-2-.7-2.8-.5-.8-1.1-1.4-2-1.9a5.3 5.3 0 00-7.3 1.9c-.3.8-.6 1.8-.6 2.8 0 1 .3 2 .7 2.8A5 5 0 00169 26zm20.6-13.8c1.5 0 2.8.2 3.8.7 1.2.5 2 1.2 2.6 2.2.6.9.9 2 .9 3.2 0 1.2-.3 2.3-1 3.2-.5 1-1.3 1.7-2.5 2.1-1 .5-2.3.8-3.8.8H186V29h-3.9V12.2h7.3zm-.2 9c1.1 0 2-.2 2.6-.7.6-.6 1-1.3 1-2.2 0-1-.4-1.7-1-2.2-.6-.5-1.5-.7-2.6-.7H186v5.8h3.2z" fill="#212121"/><defs><clipPath id="clip0"><path fill="#fff" d="M0 0h40v40H0z"/></clipPath></defs></svg>